<svg xmlns="http://www.w3.org/2000/svg" viewBox="0 0 32 32" width="32" height="32">
  <path d="M 6 4 
           C 10 4, 13 7, 13 9 
           C 13 11, 10 13, 8 13 
           C 6 13, 4 14, 4 16 
           C 4 18, 7 20, 11 20" 
        stroke="#FFFFFF" stroke-width="2.5" fill="none" stroke-linecap="round" opacity="0.35"/>
  <path d="M 26 4 
           C 22 4, 19 7, 19 9 
           C 19 11, 22 13, 24 13 
           C 26 13, 28 14, 28 16 
           C 28 18, 25 20, 21 20" 
        stroke="#FFFFFF" stroke-width="2.5" fill="none" stroke-linecap="round" opacity="0.35"/>
  <circle cx="6" cy="4" r="2" fill="#FFFFFF" opacity="0.35"/>
  <circle cx="21" cy="20" r="2" fill="#FFFFFF" opacity="0.35"/>
</svg>
