<?xml version="1.0" standalone="no"?>
<!DOCTYPE svg PUBLIC "-//W3C//DTD SVG 20010904//EN"
 "http://www.w3.org/TR/2001/REC-SVG-20010904/DTD/svg10.dtd">
<svg version="1.0" xmlns="http://www.w3.org/2000/svg"
 width="236.000000pt" height="236.000000pt" viewBox="0 0 236.000000 236.000000"
 preserveAspectRatio="xMidYMid meet">

<g transform="translate(0.000000,236.000000) scale(0.100000,-0.100000)"
fill="#00FF66" stroke="none">
<path d="M1477 2056 c-73 -27 -107 -76 -107 -154 0 -63 30 -109 90 -139 56
-29 96 -29 151 0 81 43 110 136 69 216 -36 71 -127 105 -203 77z"/>
<path d="M989 2017 c-189 -64 -308 -196 -317 -350 -4 -57 0 -75 22 -121 58
-118 175 -190 480 -296 99 -34 205 -74 236 -90 61 -31 126 -95 136 -135 7 -30
6 -29 47 -9 63 33 106 75 136 136 27 53 31 72 31 142 0 98 -26 163 -92 229
-66 65 -136 100 -338 166 -204 67 -248 93 -281 165 -24 53 -24 92 1 141 11 22
20 41 20 42 0 6 -17 2 -81 -20z"/>
<path d="M820 1302 c-110 -70 -156 -161 -148 -291 6 -92 31 -154 87 -210 56
-56 148 -100 338 -160 231 -73 292 -119 301 -225 3 -44 0 -63 -16 -91 -12 -19
-17 -35 -13 -35 30 0 163 55 208 86 160 110 223 272 159 409 -30 65 -116 144
-202 188 -38 19 -157 65 -264 102 -201 69 -312 119 -349 159 -11 12 -29 39
-39 59 l-18 37 -44 -28z"/>
<path d="M810 568 c-104 -53 -119 -186 -31 -261 68 -57 158 -56 226 4 84 74
65 208 -37 258 -57 27 -103 27 -158 -1z"/>
</g>
</svg>
