<svg xmlns="http://www.w3.org/2000/svg" viewBox="0 0 256 256" fill="none" stroke="currentColor" stroke-width="14" stroke-linecap="round" stroke-linejoin="round">
  <path d="M128,72a56,56,0,1,0,56,56A56.06,56.06,0,0,0,128,72Zm0,104a48,48,0,1,1,48-48A48.05,48.05,0,0,1,128,176Zm107.5-21.5l-17.5-23.3c.08-2.8.02-6.4-.02-8.5l17.5-23.4a4,4,0,0,0,.7-3.7,115.7,115.7,0,0,0-11.3-27.3,4,4,0,0,0-3.1-2.1l-27.7-4c-1.9-2.1-3.9-4-6-6l-4-27.7a4,4,0,0,0-2.1-3.1,115.7,115.7,0,0,0-27.3-11.3,4,4,0,0,0-3.7.7l-23.3,17.5c-2.8-.1-5.6-.1-8.4,0L83.8,26.8a4,4,0,0,0-3.7-.7A115.7,115.7,0,0,0,52.8,37.4a4,4,0,0,0-2.1,3.1l-4,27.7c-2.1,1.9-4,3.9-6,6l-27.7,4a4,4,0,0,0-3.1,2.1A115.7,115.7,0,0,0,.6,107.6a4,4,0,0,0,.7,3.7l17.5,23.3c-.08,2.8-.02,6.4.02,8.5L1.3,166.5a4,4,0,0,0-.7,3.7,115.7,115.7,0,0,0,11.3,27.3,4,4,0,0,0,3.1,2.1l27.7,4c1.9,2.1,3.9,4,6,6l4,27.7a4,4,0,0,0,2.1,3.1,115.7,115.7,0,0,0,27.3,11.3,4,4,0,0,0,3.7-.7l23.3-17.5c2.8.1,5.6.1,8.4,0l23.3,17.5a4,4,0,0,0,3.7.7,115.7,115.7,0,0,0,27.3-11.3,4,4,0,0,0,2.1-3.1l4-27.7c2.1-1.9,4.1-4.1,6-6l27.7-4a4,4,0,0,0,3.1-2.1,115.7,115.7,0,0,0,11.3-27.3A4,4,0,0,0,235.5,154.5Zm-16.8,24.6l-27.1,3.9a4,4,0,0,0-2.5,1.3c-.05.05-4.9,5.2-7.5,7.5a4,4,0,0,0-1.4,2.6l-3.9,27.1a107.5,107.5,0,0,1-21.5,8.9l-22-16.5a4,4,0,0,0-2.8-.9,88.3,88.3,0,0,1-10.5,0,4,4,0,0,0-2.8.9l-22,16.5a107.5,107.5,0,0,1-21.5-8.9l-3.9-27.1a4,4,0,0,0-1.4-2.6,88.3,88.3,0,0,1-7.5-7.5,4,4,0,0,0-2.6-1.4l-27.1-3.9a107.5,107.5,0,0,1-8.9-21.5l16.5-22a4,4,0,0,0,.9-2.7c0-.07-.2-7.2-.01-10.6a4,4,0,0,0-.9-2.8l-16.5-22a107.5,107.5,0,0,1,8.9-21.5l27.1-3.9a4,4,0,0,0,2.6-1.4,88.3,88.3,0,0,1,7.5-7.5,4,4,0,0,0,1.4-2.6l3.9-27.1a107.5,107.5,0,0,1,21.5-8.9l22,16.5a4,4,0,0,0,2.8.9,88.3,88.3,0,0,1,10.5,0,4,4,0,0,0,2.8-.9l22-16.5a107.5,107.5,0,0,1,21.5,8.9l3.9,27.1a4,4,0,0,0,1.4,2.6,88.3,88.3,0,0,1,7.5,7.5,4,4,0,0,0,2.6,1.4l27.1,3.9a107.5,107.5,0,0,1,8.9,21.5l-16.5,22a4,4,0,0,0,.9,2.7c0,.07.2,7.2.01,10.6a4,4,0,0,0,.9,2.8l16.5,22A107.5,107.5,0,0,1,218.7,179.1Z"/>
</svg>
