<svg xmlns="http://www.w3.org/2000/svg" viewBox="0 0 512 512" width="512" height="512">
  <rect width="512" height="512" rx="96" fill="#0D0F12"/>
  <path d="M 120 100 
           C 200 100, 260 160, 260 200 
           C 260 240, 200 280, 160 280 
           C 120 280, 80 300, 80 340 
           C 80 380, 140 420, 220 420" 
        stroke="#00F5D4" stroke-width="32" fill="none" stroke-linecap="round"/>
  <path d="M 392 100 
           C 312 100, 252 160, 252 200 
           C 252 240, 312 280, 352 280 
           C 392 280, 432 300, 432 340 
           C 432 380, 372 420, 292 420" 
        stroke="#00F5D4" stroke-width="32" fill="none" stroke-linecap="round"/>
  <circle cx="120" cy="100" r="24" fill="#00F5D4"/>
  <circle cx="292" cy="420" r="24" fill="#00F5D4"/>
</svg>
